<svg width="92" height="24" viewBox="0 0 92 24" fill="none" xmlns="http://www.w3.org/2000/svg">
<path d="M17.5 6.5H17.51M7 2H17C19.7614 2 22 4.23858 22 7V17C22 19.7614 19.7614 22 17 22H7C4.23858 22 2 19.7614 2 17V7C2 4.23858 4.23858 2 7 2ZM16 11.37C16.1234 12.2022 15.9813 13.0522 15.5938 13.799C15.2063 14.5458 14.5931 15.1514 13.8416 15.5297C13.0901 15.9079 12.2384 16.0396 11.4078 15.9059C10.5771 15.7723 9.80976 15.3801 9.21484 14.7852C8.61992 14.1902 8.22773 13.4229 8.09407 12.5922C7.9604 11.7616 8.09207 10.9099 8.47033 10.1584C8.84859 9.40685 9.45419 8.79374 10.201 8.40624C10.9478 8.01874 11.7978 7.87659 12.63 8C13.4789 8.12588 14.2649 8.52146 14.8717 9.12831C15.4785 9.73515 15.8741 10.5211 16 11.37Z" stroke="#1E1E1E" stroke-width="2" stroke-linecap="round" stroke-linejoin="round"/>
<path d="M50 8C51.5913 8 53.1174 8.63214 54.2426 9.75736C55.3679 10.8826 56 12.4087 56 14V21H52V14C52 13.4696 51.7893 12.9609 51.4142 12.5858C51.0391 12.2107 50.5304 12 50 12C49.4696 12 48.9609 12.2107 48.5858 12.5858C48.2107 12.9609 48 13.4696 48 14V21H44V14C44 12.4087 44.6321 10.8826 45.7574 9.75736C46.8826 8.63214 48.4087 8 50 8Z" stroke="#1E1E1E" stroke-width="2" stroke-linecap="round" stroke-linejoin="round"/>
<path d="M40 9H36V21H40V9Z" stroke="#1E1E1E" stroke-width="2" stroke-linecap="round" stroke-linejoin="round"/>
<path d="M38 6C39.1046 6 40 5.10457 40 4C40 2.89543 39.1046 2 38 2C36.8954 2 36 2.89543 36 4C36 5.10457 36.8954 6 38 6Z" stroke="#1E1E1E" stroke-width="2" stroke-linecap="round" stroke-linejoin="round"/>
<g clip-path="url(#clip0_490_36894)">
<path d="M77 18.9999C72 20.4999 72 16.4999 70 15.9999M84 21.9999V18.1299C84.0375 17.6531 83.9731 17.1737 83.811 16.7237C83.6489 16.2737 83.3929 15.8634 83.06 15.5199C86.2 15.1699 89.5 13.9799 89.5 8.51994C89.4997 7.12376 88.9627 5.78114 88 4.76994C88.4559 3.54844 88.4236 2.19829 87.91 0.999938C87.91 0.999938 86.73 0.649938 84 2.47994C81.708 1.85876 79.292 1.85876 77 2.47994C74.27 0.649938 73.09 0.999938 73.09 0.999938C72.5764 2.19829 72.5441 3.54844 73 4.76994C72.0301 5.78864 71.4925 7.1434 71.5 8.54994C71.5 13.9699 74.8 15.1599 77.94 15.5499C77.611 15.8899 77.3573 16.2953 77.1953 16.7399C77.0334 17.1844 76.9668 17.658 77 18.1299V21.9999" stroke="#1E1E1E" stroke-width="2" stroke-linecap="round" stroke-linejoin="round"/>
</g>
<defs>
<clipPath id="clip0_490_36894">
<rect width="24" height="24" fill="white" transform="translate(68)"/>
</clipPath>
</defs>
</svg>
