<svg width="236" height="179" viewBox="0 0 236 179" fill="none" xmlns="http://www.w3.org/2000/svg">
<path fill-rule="evenodd" clip-rule="evenodd" d="M118 178.525C167.298 178.525 207.262 138.561 207.262 89.2631C207.262 39.9652 167.298 0.00134279 118 0.00134277C68.7021 0.00134279 28.7383 39.9652 28.7383 89.2631C28.7383 138.561 68.7021 178.525 118 178.525ZM131.209 102.471C123.872 109.808 122.312 120.949 119.192 143.232L118 151.746L116.808 143.232C113.689 120.949 112.129 109.808 104.792 102.471C97.455 95.1344 86.3139 93.5746 64.0315 90.4551L55.5168 89.263L64.0316 88.071C86.3139 84.9514 97.455 83.3917 104.792 76.0547C112.129 68.7178 113.689 57.5766 116.808 35.2943L118 26.7799L119.192 35.2944C122.312 57.5767 123.872 68.7178 131.209 76.0548C138.545 83.3917 149.687 84.9515 171.969 88.071L180.483 89.263L171.969 90.455C149.687 93.5745 138.545 95.1343 131.209 102.471Z" fill="url(#paint0_linear_490_36813)"/>
<defs>
<linearGradient id="paint0_linear_490_36813" x1="118" y1="0.00134277" x2="118" y2="178.525" gradientUnits="userSpaceOnUse">
<stop stop-color="#FFF500"/>
<stop offset="1" stop-color="#FFB902"/>
</linearGradient>
</defs>
</svg>
